HIERARCHY
ROOT Hips
{
    OFFSET 0.000000 0.000000 0.000000
    CHANNELS 6 Xposition Yposition Zposition Zrotation Xrotation Yrotation
    JOINT Spine
    {
        OFFSET -0.000000 7.246840 0.000000
        CHANNELS 3 Zrotation Xrotation Yrotation
        JOINT Spine1
        {
            OFFSET -0.000000 20.289354 0.000000
            CHANNELS 3 Zrotation Xrotation Yrotation
            JOINT Neck
            {
                OFFSET -0.000000 20.206032 1.836912
                CHANNELS 3 Zrotation Xrotation Yrotation
                JOINT Head
                {
                    OFFSET -0.000000 12.372654 -1.767522
                    CHANNELS 3 Zrotation Xrotation Yrotation
                    End Site
                    {
                        OFFSET -0.000000 22.094025 0.000000
                    }
                }
            }
            JOINT LeftShoulder
            {
                OFFSET 3.465871 17.201674 -0.568930
                CHANNELS 3 Zrotation Xrotation Yrotation
                JOINT LeftArm
                {
                    OFFSET 14.070313 0.000000 0.000000
                    CHANNELS 3 Zrotation Xrotation Yrotation
                    JOINT LeftForeArm
                    {
                        OFFSET 26.549477 0.000000 0.000000
                        CHANNELS 3 Zrotation Xrotation Yrotation
                        JOINT LeftHand
                        {
                            OFFSET 18.880413 0.000000 0.000000
                            CHANNELS 3 Zrotation Xrotation Yrotation
                            End Site
                            {
                                OFFSET 13.256415 0.000000 0.000000
                            }
                        }
                    }
                }
            }
            JOINT RightShoulder
            {
                OFFSET -3.526370 17.201674 -0.568930
                CHANNELS 3 Zrotation Xrotation Yrotation
                JOINT RightArm
                {
                    OFFSET -14.070313 0.000000 0.000000
                    CHANNELS 3 Zrotation Xrotation Yrotation
                    JOINT RightForeArm
                    {
                        OFFSET -26.549477 0.000000 0.000000
                        CHANNELS 3 Zrotation Xrotation Yrotation
                        JOINT RightHand
                        {
                            OFFSET -18.880413 0.000000 0.000000
                            CHANNELS 3 Zrotation Xrotation Yrotation
                            End Site
                            {
                                OFFSET -13.256415 0.000000 0.000000
                            }
                        }
                    }
                }
            }
        }
    }
    JOINT LeftUpLeg
    {
        OFFSET 8.837609 0.000000 0.000000
        CHANNELS 3 Zrotation Xrotation Yrotation
        JOINT LeftLeg
        {
            OFFSET -0.000000 -41.345005 0.000000
            CHANNELS 3 Zrotation Xrotation Yrotation
            JOINT LeftFoot
            {
                OFFSET -0.000000 -35.500874 0.000000
                CHANNELS 3 Zrotation Xrotation Yrotation
                JOINT LeftToeBase
                {
                    OFFSET -0.000000 -5.744446 13.256415
                    CHANNELS 3 Zrotation Xrotation Yrotation
                    End Site
                    {
                        OFFSET -0.000000 0.000000 3.535044
                    }
                }
            }
        }
    }
    JOINT RightUpLeg
    {
        OFFSET -8.837609 0.000000 0.000000
        CHANNELS 3 Zrotation Xrotation Yrotation
        JOINT RightLeg
        {
            OFFSET -0.000000 -41.345005 0.000000
            CHANNELS 3 Zrotation Xrotation Yrotation
            JOINT RightFoot
            {
                OFFSET -0.000000 -35.500874 0.000000
                CHANNELS 3 Zrotation Xrotation Yrotation
                JOINT RightToeBase
                {
                    OFFSET -0.000000 -5.744446 13.256415
                    CHANNELS 3 Zrotation Xrotation Yrotation
                    End Site
                    {
                        OFFSET -0.000000 0.000000 3.535044
                    }
                }
            }
        }
    }
}
MOTION
Frames:    7
Frame Time:    0.010000
4.167993    82.802994    -18.820393    2.797320    0.830592    1.289485    -1.749859    -12.612805    -0.110055    -3.611445    0.965000    0.114014    2.060454    35.708786    -2.494728    4.850321    -14.295132    -0.913533    19.670563    2.552965    5.344430    -37.878315    1.545680    -10.909716    5.964980    -6.931886    -1.129118    -24.988794    -4.677015    -9.937207    -16.873840    -0.980060    12.205565    14.731771    8.451500    11.243348    -1.855558    -1.662299    -1.881779    5.727583    -0.756121    18.563921    -3.004606    10.336772    0.154483    -1.761099    -9.113709    -5.950656    5.715731    0.952136    -3.020153    0.151172    -2.224256    -0.214525    -5.340638    5.517881    -0.896880    6.641840    -2.506231    3.010803    -1.029934    -2.853557    -8.573291    -0.181578    -4.147712    0.341216    
4.157640    82.803764    -18.833414    2.781807    0.851889    1.265528    -1.750867    -12.629612    -0.098384    -3.627839    0.975020    0.126605    2.120613    35.712265    -2.521325    4.853652    -14.327989    -0.927151    19.638847    2.556681    5.352916    -38.067940    1.500674    -10.855233    5.843048    -7.079738    -1.116413    -24.871929    -4.840037    -9.927739    -16.841885    -0.969542    12.197245    14.804724    8.377670    11.232417    -1.862513    -1.701585    -1.856713    5.828072    -0.782401    18.492020    -2.973231    10.324930    0.150568    -1.785022    -9.148922    -5.941819    5.678033    0.975483    -3.012506    0.121854    -2.212197    -0.172908    -5.315487    5.493132    -0.888437    6.630206    -2.530862    3.020250    -1.049757    -2.830412    -8.566867    -0.189635    -4.129387    0.356280    
4.163586    82.817307    -18.823250    2.826900    0.791998    1.191529    -1.788021    -12.607398    -0.065940    -3.649586    1.028187    0.164370    2.163883    35.696682    -2.529268    4.863938    -14.337386    -0.924236    19.605619    2.562381    5.386426    -38.324173    1.228115    -10.878650    5.912224    -6.865178    -0.935380    -25.167980    -4.628775    -9.827748    -16.826725    -0.990358    12.204127    14.899221    8.335166    11.192494    -1.866180    -1.691720    -1.805967    5.910183    -0.761208    18.437998    -3.048762    10.432049    0.196008    -1.725928    -9.232450    -5.998439    5.670857    1.289900    -2.574814    0.324895    -2.318185    -0.461322    -5.378546    5.573925    -0.803399    6.648000    -2.594224    2.997327    -1.060440    -2.792483    -8.553681    -0.196605    -4.123529    0.369349    
4.162087    82.818741    -18.835548    2.818654    0.820101    1.174601    -1.778762    -12.627107    -0.059409    -3.686800    1.030725    0.170744    2.235550    35.689461    -2.550621    4.844464    -14.348152    -0.937298    19.576117    2.559997    5.407302    -38.489342    1.240142    -10.867042    5.969224    -6.695284    -0.804851    -25.526642    -4.489185    -9.577465    -16.799656    -0.998043    12.199812    14.979173    8.295895    11.172056    -1.841052    -1.642066    -1.782720    5.928880    -0.707561    18.441719    -3.043216    10.417306    0.171380    -1.746589    -9.268001    -5.848471    5.696858    1.300743    -2.682506    0.336960    -2.321080    -0.478462    -5.377938    5.554483    -0.772969    6.661074    -2.641790    3.011669    -1.079573    -2.755608    -8.578508    -0.183828    -4.124433    0.345350    
4.159482    82.819054    -18.849634    2.809305    0.850443    1.159486    -1.750608    -12.667580    -0.037002    -3.756001    1.060849    0.192106    2.320073    35.693737    -2.588200    4.840805    -14.371362    -0.959780    19.560133    2.534220    5.362615    -38.611534    1.324289    -10.822987    5.993394    -6.563064    -0.677909    -25.832939    -4.390928    -9.338933    -16.758240    -0.972864    12.168670    15.029341    8.222445    11.170591    -1.775716    -1.616657    -1.782306    5.904725    -0.682181    18.496469    -3.037183    10.394837    0.181891    -1.746088    -9.300720    -5.828621    5.668574    1.322676    -2.696916    0.329362    -2.344917    -0.467743    -5.373664    5.537003    -0.766592    6.676687    -2.696666    2.994775    -1.109465    -2.707958    -8.555153    -0.185677    -4.115133    0.348786    
4.158036    82.819580    -18.860821    2.802552    0.877027    1.144115    -1.660131    -12.731332    -0.012196    -3.994214    1.131850    0.212464    2.567421    35.704136    -2.635641    4.783917    -14.410321    -0.974016    19.282990    2.979379    5.387342    -38.217560    1.133110    -11.151049    5.872976    -6.498426    -0.471655    -26.160250    -4.346037    -9.181231    -16.532381    -0.969165    12.173518    15.002378    8.248462    11.138116    -1.732102    -1.643791    -1.782380    5.824977    -0.718404    18.558811    -3.036464    10.382230    0.184022    -1.723190    -9.350235    -5.886479    5.656673    1.341804    -2.615814    0.338732    -2.309580    -0.480944    -5.379623    5.532815    -0.742809    6.702006    -2.766939    3.019319    -1.111416    -2.667148    -8.569918    -0.161276    -4.116525    0.302955    
4.155746    82.818581    -18.873274    2.795590    0.901112    1.134865    -1.698579    -12.738657    -0.027998    -3.960164    1.117941    0.200202    2.597765    35.693039    -2.643843    4.758769    -14.386211    -0.984563    19.202168    2.996248    5.430688    -38.374878    0.925431    -11.234083    5.944925    -6.223142    -0.173489    -26.441940    -4.091668    -9.051837    -16.534653    -0.957067    12.177031    15.051842    8.273461    11.150296    -1.695033    -1.653606    -1.797830    5.710448    -0.743726    18.614750    -3.035017    10.369708    0.188982    -1.715141    -9.390875    -5.852338    5.629502    1.356308    -2.668351    0.311602    -2.309149    -0.442423    -5.378526    5.533781    -0.739622    6.717564    -2.846585    2.973872    -1.132313    -2.625250    -8.519578    -0.191268    -4.089105    0.359176    
